PathFileType	4	(X/Y/Z)	Patient4_TMGait_0pt5_01_left_02.trc.trc
DataRate	CameraRate	NumFrames	NumMarkers	Units	OrigDataRate	OrigDataStartFrame	OrigNumFrames
76.086956521739	76.086956521739	6	33	mm	76.086956521739	106	       141
Frame#	Time	L.ASIS			Sacral			L.Shoulder			Chest			R.Shoulder			Neck			R.ASIS			R.Thigh.Superior			R.Thigh.Lateral			R.Thigh.Inferior			R.Patella			L.Thigh.Superior			L.Thigh.Lateral			L.Thigh.Inferior			L.Patella			L.Shank.Superior			L.Shank.Lateral			L.Shank.Inferior			R.Shank.Superior			R.Shank.Lateral			R.Shank.Inferior			R.Heel			R.Midfoot.Superior			R.Midfoot.Lateral			R.Toe			L.Heel			L.Midfoot.Lateral			L.Midfoot.Superior			L.Toe			L.Elbow			L.Wrist			R.Elbow			R.Wrist			
		X1	Y1	Z1	X2	Y2	Z2	X3	Y3	Z3	X4	Y4	Z4	X5	Y5	Z5	X6	Y6	Z6	X7	Y7	Z7	X8	Y8	Z8	X9	Y9	Z9	X10	Y10	Z10	X11	Y11	Z11	X12	Y12	Z12	X13	Y13	Z13	X14	Y14	Z14	X15	Y15	Z15	X16	Y16	Z16	X17	Y17	Z17	X18	Y18	Z18	X19	Y19	Z19	X20	Y20	Z20	X21	Y21	Z21	X22	Y22	Z22	X23	Y23	Z23	X24	Y24	Z24	X25	Y25	Z25	X26	Y26	Z26	X27	Y27	Z27	X28	Y28	Z28	X29	Y29	Z29	X30	Y30	Z30	X31	Y31	Z31	X32	Y32	Z32	X33	Y33	Z33	

106	3.900000000000	759.643029608814	967.596301777065	372.345188260542	554.822365760408	1008.981659809493	541.303191968459	718.424596292414	1439.977357671607	356.080959234809	831.083635157552	1368.570177690600	510.113637964122	757.901084888416	1439.970292695803	690.508368465951	729.987583247592	1499.194094449842	507.436862442326	789.917935367924	943.647572203959	644.069333440758	822.898909179138	740.773284268150	610.916962881011	740.681805140094	634.707495861974	672.206453588212	810.821551936247	580.454863337461	587.829366405877	807.462766376456	492.920591495040	591.867949163722	846.164873408043	785.683217095600	399.259836391919	801.390039384022	658.331457992508	324.260442643083	905.276089028084	597.479299573384	383.351718210738	922.665265079014	511.649901520024	377.590362304856	869.946146425524	438.581504413961	368.457595954337	743.193123334744	367.098823829522	315.298463907380	759.431252074331	237.584348067341	369.166592182446	780.182438267875	405.115735553155	598.993802529079	709.983614228657	300.793964396389	659.408237619597	750.805095761106	207.235406454587	594.595738185280	612.945463118156	43.481613176903	563.265164861487	785.788810300030	97.233341343986	597.978912869744	696.945598746362	36.511171746509	637.375711403596	905.112328553368	43.442560644365	624.569616443729	587.414595887307	128.464028044535	400.597302264995	656.088723672283	102.051745175469	320.733957027356	755.178671934843	134.621768114989	345.220281364774	858.288310987272	47.115960659864	316.639786929377	678.736162149535	1083.937524151398	244.152274308264	747.765854906732	833.079979835280	226.227553043068	803.489638064852	1103.790071865032	825.732642942277	1025.533250871232	973.215907251915	803.341757310993	
107	3.913142857143	757.013021620907	968.206107219813	372.429682574797	553.263413272768	1009.910023458323	542.615852909242	717.174294064175	1440.315167128772	356.688655278230	830.700850438904	1368.460557556556	509.811309647372	759.320590501203	1440.246238280828	690.779760140981	729.963594429676	1499.384902551466	507.979516638397	788.439527476844	943.445053176061	643.988657682020	819.170456730973	740.139829764198	610.164601572452	736.568700114749	634.754434231884	672.403069616513	805.382833191686	579.888709358093	587.465794173694	801.307633478543	492.665179186594	591.699910408579	844.098050172068	787.233147495573	399.828500433466	799.902405664909	659.666653863759	324.630936597720	903.140015854000	599.065937040837	384.634021933271	922.098720181660	515.149360369045	378.728600483257	873.612813995990	441.157320240009	368.762252535403	752.553436357684	361.670912971436	314.455126847992	777.325699905501	233.238869750967	368.159469433776	773.994837348337	404.966538812482	598.893488085568	703.695495167234	300.772303593734	659.395009260004	744.323120816217	207.166809189814	594.488277562302	606.310481339094	43.400930536459	563.214262923039	779.092211753205	97.204585402046	597.912487088582	690.282645286621	36.497863705589	637.328217323261	898.441347142298	43.492693131707	624.590816533959	613.363137643143	112.254156604384	398.384114350820	684.105585003380	91.136687104909	318.780188288460	780.436060084915	130.397241422454	343.942297575209	889.531090967535	50.737689592604	315.682843795488	669.779583694594	1085.414491288334	244.539503416733	728.657013993541	832.290835070283	226.043046384856	811.004203282192	1105.811372857303	826.546925951285	1039.242486664286	987.898283139659	800.360376267536	
108	3.926285714286	754.496070265875	968.594926433165	372.378792741861	551.772377964579	1010.684532898793	543.761967774376	716.020284639589	1440.542477046901	357.160056534209	830.343891406864	1368.213767454902	509.401516449364	760.679752682445	1440.355759190724	690.909523382795	729.949038463534	1499.447517341800	508.401358019513	786.970508034020	943.176624519937	643.816486536183	815.579063487332	739.478644749869	609.518686615968	732.568517195271	634.751215702140	672.605043146300	800.165534284379	579.305548154697	587.189280358396	795.390438403835	492.364856516947	591.609536663046	841.587155832916	788.048634716749	400.308249698441	797.678722194104	660.484767537759	324.767547016826	899.967776818937	599.810638893146	385.925699649450	920.408731009490	518.075552016648	379.862255409351	876.366888576652	443.534895368338	369.042841389797	761.876743886404	356.090399466543	313.514484967117	795.346157164890	229.457801485642	367.305034135208	767.992931070700	404.762622678391	598.824708060602	697.545592614425	300.724206627763	659.405687256197	737.905434455018	207.043475144755	594.399880665818	599.677682483067	43.323907956313	563.169495351703	772.397443135113	97.163169085866	597.849855090981	683.619785923336	36.473839887781	637.283556041838	891.777163127656	43.499147719360	624.611980550459	640.530625086436	96.887151981531	396.273379469092	713.196005318566	81.176580920902	317.124982581909	806.170253709864	127.127587503159	343.031128829316	920.889187806379	55.751464764491	315.506088959952	660.797913880623	1086.992468038602	244.817696730072	710.158610535220	832.122731386394	226.065141648857	818.180291535517	1107.687522327780	826.964863152751	1051.825934657006	1002.830050222812	796.797234373565	
109	3.939428571429	752.099706218667	968.760318832404	372.202459245514	550.343990613720	1011.297733087184	544.738016433466	714.950071639164	1440.655948580820	357.483213178338	829.995030035919	1367.840473851452	508.887071206414	761.929095392686	1440.311563938195	690.890328213206	729.929675616872	1499.389623843571	508.686848831017	785.537848995597	942.853612566579	643.566716436970	812.183625227720	738.795778389055	608.999851007888	728.728450677682	634.691311600566	672.796017263813	795.235433760170	578.704891342315	586.991864878564	789.772048033703	492.008776480777	591.571881160949	838.632698576027	788.139517343151	400.687890737972	794.789254173095	660.823978002104	324.620594758170	895.900695894783	599.788750442762	387.133221862510	917.735037622411	520.456692382749	380.918770179803	878.249583667517	445.760697245783	369.260845362127	771.077034333398	350.613927660324	312.507409490979	813.194746246895	226.503712603701	366.645684798703	762.229629354584	404.496452332057	598.771098421830	691.575456664020	300.651063997146	659.431269374999	731.575403028533	206.862737153892	594.322352297113	593.046329688065	43.253784556138	563.135936709113	765.706134786254	97.111155984768	597.788810624334	676.960057983136	36.441281430242	637.247231981229	885.121902789127	43.467476049034	624.633571930640	668.432665979404	82.934651107129	394.397989599986	742.839350131970	72.582314098432	315.894431975494	831.924510273833	125.071985816028	342.549425229659	951.761700309730	62.231983543002	316.181952921932	651.878670012558	1088.638947801679	245.038755080758	692.350704875686	832.455207773032	226.289106592685	825.029775993677	1109.407937048204	826.973452770289	1063.231853176585	1017.893013884961	792.679427925537	
110	3.952571428571	749.824467034468	968.716172727726	371.910731802458	548.968676255254	1011.751796593297	545.541546133795	713.945755050531	1440.659207190407	357.648559776764	829.634511530623	1367.359967621805	508.271242920198	763.023449198481	1440.136249301590	690.717063196361	729.888275741004	1499.225140987327	508.821485059551	784.168432198096	942.486818782976	643.246348393288	809.030291327315	738.097314530195	608.597840522560	725.093088925402	634.569313492331	672.949640330710	790.640691453471	578.085714122192	586.844526715708	784.498103394388	491.587208273352	591.548034254500	835.266753948077	787.563282977372	400.952317715539	791.344395811399	660.746342771689	324.166416161460	891.137207688577	599.120720621410	388.167679454534	914.267117615943	522.347324297721	381.836895751002	879.341180304723	447.872716893444	369.384542809330	780.033659362172	345.467523789207	311.478294821108	830.546184776391	224.545016386534	366.203950227405	756.744480317394	404.161725069791	598.707207751641	685.816708490457	300.554863168272	659.455044208280	725.350784282437	206.624513954994	594.241720973973	586.415582229839	43.193284255695	563.116048131087	759.018092579403	97.050856837068	597.725342031592	670.305780660117	36.403651562971	637.223082830604	878.476201124106	43.405727246019	624.655395364368	696.470816346092	70.833097673867	392.875982898665	772.412326648466	65.621220170577	315.177527441049	857.195986010699	124.353719782879	342.513542387254	981.542672667066	70.088086509996	317.691255339811	643.113970102356	1090.321008248594	245.243979988726	675.298030314096	833.176259481010	226.700385386423	831.557265413530	1110.973126887775	826.560154745266	1073.423018158937	1032.966240809926	788.037769163073	
111	3.965714285714	747.666799996447	968.489205328286	371.511759992147	547.637248231180	1012.055066694242	546.171616823735	712.983332479241	1440.561419012537	357.649573456951	829.241496734189	1366.797723669013	507.556518165795	763.925726090252	1439.858276365494	690.387046660204	729.803895499678	1498.971689970339	508.793456028440	782.887435570654	942.085834432661	642.854340460186	806.150018538832	737.389021726153	608.275391195839	721.701781832694	634.381159802827	673.033864259189	786.410618512503	577.446625974155	586.703615104375	779.598229964857	491.092077047597	591.492484646842	831.562405052711	786.422959939594	401.082801943115	787.490598032490	660.328493554291	323.414802588284	885.922529727492	597.958753600262	388.954666774217	910.234510951208	523.817189723138	382.571386521255	879.754124088344	449.889939940718	369.392832348177	788.590761834155	340.828761064389	310.483725976514	847.055831843918	223.637836736632	365.980594103116	751.562256941647	403.753537469655	598.603345782290	680.289935269717	300.437833580008	659.455838663104	719.243299303322	206.331011856696	594.141226218284	579.784655140328	43.145120480650	563.109868424164	752.331984152949	96.984625267517	597.654844171737	663.658320900825	36.365569431332	637.213112373283	871.839305178129	43.322657966497	624.676788270327	723.953826157552	60.855370818806	391.802739972221	801.204693816942	60.400211734344	315.016230236604	881.446933458857	124.945856835731	342.889905479489	1009.632363191707	79.051610397665	319.912544603052	634.596649909088	1092.005175693886	245.460478854709	659.056345334830	834.184318095979	227.275346219157	837.757917982394	1112.391383756026	825.716566357221	1082.377322301082	1047.925444892845	782.907936732764	
